<svg xmlns="http://www.w3.org/2000/svg" width="82" height="82" viewBox="0 0 82 82">
  <g id="icon_4" transform="translate(0 0.013)">
    <rect id="Rectangle_19" data-name="Rectangle 19" width="82" height="82" rx="6" transform="translate(0 -0.013)" fill="#2b2f52"/>
    <g id="drill" transform="translate(20 22.475)">
      <g id="Group_26" data-name="Group 26" transform="translate(0 0)">
        <g id="Group_25" data-name="Group 25">
          <path id="Path_1000" data-name="Path 1000" d="M44.9,54.9H33.414V53.4a3.13,3.13,0,0,0-2.372-3.04l-1.8-.451v-.229A3.136,3.136,0,0,0,26.1,46.546H7.309A7.317,7.317,0,0,0,0,53.855v4.177a7.317,7.317,0,0,0,7.309,7.309h9.4a1.044,1.044,0,1,0,0-2.088h-9.4a5.227,5.227,0,0,1-5.221-5.221V53.855a5.227,5.227,0,0,1,5.221-5.221H26.1a1.046,1.046,0,0,1,1.044,1.044v12.53A1.046,1.046,0,0,1,26.1,63.253H20.884a1.043,1.043,0,0,0-1.013.79l-.648,2.595a1.044,1.044,0,0,1-1.014.791H15.855a1.043,1.043,0,0,0-1.023.835l-1.206,5.913a3.111,3.111,0,0,0,.146,1.6H11.486a1.044,1.044,0,1,0,0,2.088h4.177a1.025,1.025,0,0,0,.368-.074,3.176,3.176,0,0,0,.677.074h1.044A1.046,1.046,0,0,1,18.8,78.915V81a1.046,1.046,0,0,1-1.044,1.044H9.4A1.046,1.046,0,0,1,8.353,81a37.076,37.076,0,0,1,.5-6.078l.877-6.308a1.044,1.044,0,0,0-2.069-.287l-.873,6.28A39.04,39.04,0,0,0,6.265,81,3.136,3.136,0,0,0,9.4,84.136h8.353A3.136,3.136,0,0,0,20.883,81V78.915a3.136,3.136,0,0,0-3.133-3.133H16.707a1.032,1.032,0,0,1-.8-.375,1.016,1.016,0,0,1-.23-.833l1.032-5.057h1.5a3.129,3.129,0,0,0,3.04-2.372l.451-1.8H26.1a3.136,3.136,0,0,0,3.133-3.133V61.98l1.8-.451a3.128,3.128,0,0,0,2.372-3.04v-1.5H44.9a1.044,1.044,0,0,0,0-2.088Zm-13.574,3.59a1.042,1.042,0,0,1-.791,1.013l-1.3.325V52.06l1.3.325a1.042,1.042,0,0,1,.791,1.013Z" transform="translate(0 -46.546)" fill="#fff"/>
        </g>
      </g>
      <g id="Group_28" data-name="Group 28" transform="translate(5.221 8.353)">
        <g id="Group_27" data-name="Group 27">
          <path id="Path_1001" data-name="Path 1001" d="M63.4,139.636H59.226a1.044,1.044,0,1,0,0,2.088H63.4a1.044,1.044,0,0,0,0-2.088Z" transform="translate(-58.182 -139.636)" fill="#fff"/>
        </g>
      </g>
      <g id="Group_30" data-name="Group 30" transform="translate(5.221 5.221)">
        <g id="Group_29" data-name="Group 29" transform="translate(0 0)">
          <path id="Path_1002" data-name="Path 1002" d="M63.4,104.727H59.226a1.044,1.044,0,0,0,0,2.088H63.4a1.044,1.044,0,0,0,0-2.088Z" transform="translate(-58.182 -104.727)" fill="#fff"/>
        </g>
      </g>
      <g id="Group_32" data-name="Group 32" transform="translate(5.221 11.486)">
        <g id="Group_31" data-name="Group 31" transform="translate(0 0)">
          <path id="Path_1003" data-name="Path 1003" d="M63.4,174.545H59.226a1.044,1.044,0,1,0,0,2.088H63.4a1.044,1.044,0,0,0,0-2.088Z" transform="translate(-58.182 -174.545)" fill="#fff"/>
        </g>
      </g>
    </g>
  </g>
</svg>
