<svg xmlns="http://www.w3.org/2000/svg" width="82" height="82" viewBox="0 0 82 82">
  <g id="icon_3" transform="translate(0 0.013)">
    <g id="Group_7753" data-name="Group 7753">
      <rect id="Rectangle_10" data-name="Rectangle 10" width="82" height="82" rx="6" transform="translate(0 -0.013)" fill="#bc109b"/>
    </g>
    <g id="sprout" transform="translate(23 22.506)">
      <g id="Group_42" data-name="Group 42" transform="translate(21.954 0)">
        <g id="Group_41" data-name="Group 41" transform="translate(0 0)">
          <path id="Path_1007" data-name="Path 1007" d="M296.379,23.456a1.826,1.826,0,0,0-.823-.183c-.366.092-9.879,1.647-12.989,4.757a7.235,7.235,0,0,0-2.378,5.123,7.061,7.061,0,0,0,1.372,3.933L279.547,39.1a.884.884,0,0,0,0,1.281.884.884,0,0,0,1.281,0l7.318-7.318a.906.906,0,1,0-1.281-1.281l-3.933,3.933a4.884,4.884,0,0,1-.915-2.653,5.412,5.412,0,0,1,1.83-3.75c2.012-1.921,7.592-3.385,10.794-4.025-.64,3.11-2.1,8.69-4.025,10.7-1.555,1.555-3.11,2.2-4.665,1.83a.933.933,0,0,0-.366,1.83,5.215,5.215,0,0,0,1.189.092,7.3,7.3,0,0,0,5.123-2.47c3.2-3.11,4.757-12.532,4.757-12.989C296.745,24,296.562,23.73,296.379,23.456Z" transform="translate(-279.273 -23.273)" fill="#fff"/>
        </g>
      </g>
      <g id="Group_44" data-name="Group 44" transform="translate(8.233 0.915)">
        <g id="Group_43" data-name="Group 43" transform="translate(0 0)">
          <path id="Path_1008" data-name="Path 1008" d="M116.436,45.154l-1.464-1.464c1.281-1.83,1.006-3.933-.823-5.763-2.1-1.921-7.684-2.927-8.324-3.019a.97.97,0,0,0-1.1,1.1c.092.64,1.1,6.312,3.11,8.324a5.959,5.959,0,0,0,2.1,1.372h.274a1.1,1.1,0,0,0,.915-.64.952.952,0,0,0-.549-1.189,4,4,0,0,1-1.372-.915c-1.1-1.1-1.921-4.025-2.287-6.037,1.921.457,4.94,1.281,5.946,2.287,1.1,1.1,1.372,2.2.823,3.2l-.915-.915a.906.906,0,0,0-1.281,1.281l3.659,3.659a.884.884,0,0,0,1.281,0A.884.884,0,0,0,116.436,45.154Z" transform="translate(-104.727 -34.909)" fill="#fff"/>
        </g>
      </g>
      <g id="Group_46" data-name="Group 46" transform="translate(0 20.216)">
        <g id="Group_45" data-name="Group 45">
          <path id="Path_1009" data-name="Path 1009" d="M39.975,283.364a5.976,5.976,0,0,0-7.135-1.006L29,284.188a10.213,10.213,0,0,1-3.385.823,4.7,4.7,0,0,0,.915-2.744,1.835,1.835,0,0,0-1.83-1.83H15.185a8.141,8.141,0,0,0-6.22,2.836l-3.2,3.659a2.448,2.448,0,0,0-2.1-1.1H.915a.915.915,0,0,0,0,1.829H3.659a.864.864,0,0,1,.915.915v5.488a.864.864,0,0,1-.915.915H.915a.915.915,0,0,0,0,1.83H3.659a2.665,2.665,0,0,0,2.561-1.83h5.031a5.625,5.625,0,0,0,1.281-.091l12.9-1.464a12.5,12.5,0,0,0,5.854-2.287l8.6-6.4a.926.926,0,0,0,.366-.64A1.039,1.039,0,0,0,39.975,283.364Zm-9.788,6.312a9.689,9.689,0,0,1-4.94,1.921l-12.9,1.464c-.366,0-.732.091-1.1.091H6.4v-4.208l4.025-4.574a6.374,6.374,0,0,1,4.848-2.2H24.7a2.7,2.7,0,0,1-2.744,2.744H16.466a.915.915,0,1,0,0,1.829h8.873a10.3,10.3,0,0,0,4.391-1.006l3.933-1.829a4.089,4.089,0,0,1,4.208.091Z" transform="translate(0 -280.437)" fill="#fff"/>
        </g>
      </g>
    </g>
  </g>
</svg>
