<svg xmlns="http://www.w3.org/2000/svg" width="82" height="82" viewBox="0 0 82 82">
  <g id="icon_1" transform="translate(0 0.013)">
    <rect id="Rectangle_8" data-name="Rectangle 8" width="82" height="82" rx="6" transform="translate(0 -0.013)" fill="#364bdd"/>
    <g id="wrench" transform="translate(32 20.458)">
      <g id="Group_34" data-name="Group 34" transform="translate(0 0)">
        <g id="Group_33" data-name="Group 33">
          <path id="Path_1004" data-name="Path 1004" d="M148.045,5.727h-.955V4.156a2.851,2.851,0,0,0-1.8-2.659A20.86,20.86,0,0,0,137.515,0h-4.743a2.867,2.867,0,0,0-2.864,2.864v8.591a.955.955,0,0,0,1.909,0V2.864a.956.956,0,0,1,.955-.955h4.743A18.917,18.917,0,0,1,144.58,3.27a.949.949,0,0,1,.6.886V5.727h-10.5a.955.955,0,0,0-.954.955v7.636h-4.773a.954.954,0,0,0-.955.955v.955a.955.955,0,0,0,1.909,0h15.273v21a2.864,2.864,0,1,1-5.727,0V26.1a3.812,3.812,0,0,0-2.892-3.7l-5.468-1.367a.954.954,0,0,0-1.186.926v3.818a2.864,2.864,0,0,0,5.727,0V24.131l.463.115a1.909,1.909,0,0,1,1.446,1.854V37.227a4.773,4.773,0,0,0,9.546,0V15.273a.954.954,0,0,0-.955-.955h-10.5V7.636h12.409a.955.955,0,0,0,0-1.909ZM133.726,23.864v1.909a.955.955,0,0,1-1.909,0v-2.6l1.931.483A.96.96,0,0,0,133.726,23.864Z" transform="translate(-127.999)" fill="#fff"/>
        </g>
      </g>
      <g id="Group_36" data-name="Group 36" transform="translate(13.5 36)">
        <g id="Group_35" data-name="Group 35" transform="translate(0 0)">
          <circle id="Ellipse_12" data-name="Ellipse 12" cx="1" cy="1" r="1" fill="#fff"/>
        </g>
      </g>
      <g id="Group_38" data-name="Group 38" transform="translate(9.546 11.455)">
        <g id="Group_37" data-name="Group 37">
          <path id="Path_1005" data-name="Path 1005" d="M254.864,139.636h-9.546a.955.955,0,1,0,0,1.909h9.546a.955.955,0,1,0,0-1.909Z" transform="translate(-244.364 -139.636)" fill="#fff"/>
        </g>
      </g>
      <g id="Group_40" data-name="Group 40" transform="translate(0 18.136)">
        <g id="Group_39" data-name="Group 39">
          <path id="Path_1006" data-name="Path 1006" d="M132.774,221.091h-3.818a.955.955,0,1,0,0,1.909h3.818a.955.955,0,0,0,0-1.909Z" transform="translate(-128.001 -221.091)" fill="#fff"/>
        </g>
      </g>
    </g>
  </g>
</svg>
