<?xml version="1.0" encoding="iso-8859-1"?>
<!-- Generator: Adobe Illustrator 19.0.0, SVG Export Plug-In . SVG Version: 6.00 Build 0)  -->
<svg version="1.1" id="Layer_1" xmlns="http://www.w3.org/2000/svg" xmlns:xlink="http://www.w3.org/1999/xlink" x="0px" y="0px"
	 viewBox="0 0 460 460" style="enable-background:new 0 0 460 460;" xml:space="preserve">
<g id="XMLID_871_">
	<polygon id="XMLID_872_" style="fill:#F0651F;" points="0,164.998 39.24,460 150.646,460 200.646,230 150.646,0 	"/>
	<rect id="XMLID_873_" x="66.35" y="138" style="fill:#C53E16;" width="23" height="23"/>
	<polygon id="XMLID_874_" style="fill:#893A31;" points="460,164.998 420.76,460 150.646,460 150.646,395 180.646,304.999 
		150.646,214.998 	"/>
	<polygon id="XMLID_875_" style="fill:#C53E16;" points="309.355,0 460,164.998 370.65,215 260.648,244.999 150.646,214.998 
		170.646,168.001 150.646,105.01 150.646,0 	"/>
	<path id="XMLID_876_" style="fill:#FFC052;" d="M370.65,145.01V215l-40,40V145.01c0-11.04,8.96-20.01,19.99-20.01
		C361.68,125,370.65,133.97,370.65,145.01z"/>
	<path id="XMLID_877_" style="fill:#FFC052;" d="M313.24,105v140l-40-30V105c0-11.02,8.96-20,20-20
		C304.26,85,313.24,93.98,313.24,105z"/>
	<path id="XMLID_878_" style="fill:#F9D4A0;" d="M190.65,286.22l-40,108.78c-33,0-61.3-27-61.3-60l0.01-129.92
		c0-11.04,8.96-20.01,19.99-20.01c11.04,0,20.01,8.97,20.01,20.01v81.14H190.65z"/>
	<path id="XMLID_879_" style="fill:#FFC052;" d="M251.94,85v170l-40-40V85c0-11.02,8.97-20,20-20C242.96,65,251.94,73.98,251.94,85z
		"/>
	<path id="XMLID_880_" style="fill:#FFC052;" d="M190.65,105.01V255l-40-40V105.01c0-11.04,8.96-20.01,19.99-20.01
		C181.68,85,190.65,93.97,190.65,105.01z"/>
	<path id="XMLID_881_" style="fill:#CB9851;" d="M150.65,215v180c0,0,134.74,0,164.99,0s55-27,55-60l0.01-120H150.65z"/>
	<rect id="XMLID_882_" x="317.65" y="302" style="fill:#893A31;" width="15" height="15"/>
	<rect id="XMLID_883_" x="287.65" y="342" style="fill:#893A31;" width="15" height="15"/>
</g>
<g>
</g>
<g>
</g>
<g>
</g>
<g>
</g>
<g>
</g>
<g>
</g>
<g>
</g>
<g>
</g>
<g>
</g>
<g>
</g>
<g>
</g>
<g>
</g>
<g>
</g>
<g>
</g>
<g>
</g>
</svg>
