<?xml version="1.0" encoding="iso-8859-1"?>
<!-- Generator: Adobe Illustrator 19.0.0, SVG Export Plug-In . SVG Version: 6.00 Build 0)  -->
<svg version="1.1" id="Layer_1" xmlns="http://www.w3.org/2000/svg" xmlns:xlink="http://www.w3.org/1999/xlink" x="0px" y="0px"
	 viewBox="0 0 512 512" style="enable-background:new 0 0 512 512;" xml:space="preserve">
<path style="fill:#6D6E71;" d="M259.052,150.426c-4.896-9.712-0.99-21.554,8.722-26.448l185.991-93.739
	c9.714-4.896,21.555-0.99,26.448,8.722c4.894,9.712,0.99,21.553-8.722,26.448L285.5,159.148
	C275.792,164.041,263.948,160.142,259.052,150.426z"/>
<path style="fill:#28C3E4;" d="M389.217,483.873H122.783c-10.875,0-19.692-8.817-19.692-19.692V362.206
	c0-15.808,17.759-25.18,30.808-16.255c36.037,24.643,78.259,37.667,122.102,37.667s86.065-13.026,122.102-37.667
	c13.046-8.922,30.808,0.444,30.808,16.255v101.975C408.909,475.058,400.093,483.873,389.217,483.873z"/>
<path style="fill:#28B6E4;" d="M378.102,345.951c-36.037,24.643-78.259,37.667-122.102,37.667v100.255h133.217
	c10.875,0,19.692-8.817,19.692-19.692V362.206C408.909,346.396,391.147,337.029,378.102,345.951z"/>
<path style="fill:#28D2E4;" d="M256,423.004c-141.919,0-256-115.237-256-256v-25.441c0-10.875,8.817-19.692,19.692-19.692h472.615
	c10.875,0,19.692,8.817,19.692,19.692v25.441C512,307.768,397.92,423.004,256,423.004z"/>
<path style="fill:#28C3E4;" d="M492.308,121.871H256v301.133c141.92,0,256-115.237,256-256v-25.441
	C512,130.688,503.183,121.871,492.308,121.871z"/>
<g>
</g>
<g>
</g>
<g>
</g>
<g>
</g>
<g>
</g>
<g>
</g>
<g>
</g>
<g>
</g>
<g>
</g>
<g>
</g>
<g>
</g>
<g>
</g>
<g>
</g>
<g>
</g>
<g>
</g>
</svg>
